<svg width="178" height="178" viewBox="0 0 178 178" fill="none" xmlns="http://www.w3.org/2000/svg">
<rect width="177.298" height="177.298" transform="translate(0.351074 0.618164)" fill="#026900"/>
<path d="M171.852 33.7856C171.773 32.4301 171.199 31.1509 170.239 30.1908C169.279 29.2307 167.999 28.6566 166.644 28.5774C130.797 26.4997 102.013 37.4008 89.6441 57.8177C81.4718 71.3159 81.4856 87.709 89.5333 103.347C84.9526 108.8 81.6049 115.179 79.7196 122.047L68.4515 110.737C73.8674 99.4273 73.6596 87.6397 67.7589 77.8468C58.617 62.7557 37.5144 54.6665 11.3145 56.204C9.95904 56.2832 8.67983 56.8573 7.71975 57.8174C6.75966 58.7775 6.18554 60.0567 6.10638 61.4121C4.56195 87.612 12.6581 108.715 27.7492 117.857C32.7292 120.899 38.4518 122.51 44.2877 122.511C49.9522 122.441 55.5286 121.099 60.6047 118.584L77.9189 135.898V155.754C77.9189 157.223 78.5026 158.633 79.5417 159.672C80.5807 160.711 81.99 161.294 83.4594 161.294C84.9289 161.294 86.3381 160.711 87.3772 159.672C88.4163 158.633 89 157.223 89 155.754V135.33C88.9753 126.516 91.9749 117.96 97.4978 111.09C104.624 114.814 112.527 116.807 120.567 116.908C128.341 116.933 135.969 114.809 142.612 110.772C163.029 98.4161 173.957 69.6329 171.852 33.7856ZM33.4629 108.382C22.8389 101.948 16.8274 86.7186 16.9728 67.1051C36.5864 66.9388 51.8159 72.9711 58.2499 83.5951C61.6089 89.1357 62.156 95.5974 59.9536 102.253L43.048 85.3473C42.0005 84.3521 40.6057 83.8055 39.1609 83.824C37.7162 83.8425 36.3358 84.4247 35.3141 85.4464C34.2924 86.468 33.7102 87.8484 33.6917 89.2932C33.6733 90.7379 34.2199 92.1328 35.2151 93.1803L52.1207 110.086C45.4651 112.288 39.0103 111.741 33.4629 108.382ZM136.87 101.304C127.59 106.921 116.682 107.35 105.601 102.689L142.785 65.4983C143.78 64.4508 144.327 63.056 144.308 61.6112C144.29 60.1664 143.708 58.786 142.686 57.7644C141.664 56.7427 140.284 56.1605 138.839 56.142C137.394 56.1235 135.999 56.6701 134.952 57.6653L97.761 94.8078C93.0792 83.7267 93.5017 72.8118 99.1461 63.5383C108.801 47.6092 131.697 38.7305 161.013 39.4161C161.678 68.7257 152.813 91.6497 136.87 101.304Z" fill="white"/>
</svg>
