<svg width="41" height="43" viewBox="0 0 41 43" fill="none" xmlns="http://www.w3.org/2000/svg">
<path d="M20.3125 0C14.9253 0 9.75873 2.21442 5.94939 6.15611C2.14006 10.0978 0 15.4439 0 21.0183C0 26.5927 2.14006 31.9388 5.94939 35.8805C9.75873 39.8222 14.9253 42.0366 20.3125 42.0366C24.5137 42.0366 28.9258 40.727 32.1152 38.5342C32.2862 38.4166 32.4331 38.2654 32.5475 38.0891C32.662 37.9127 32.7418 37.7148 32.7823 37.5066C32.8228 37.2984 32.8233 37.084 32.7838 36.8755C32.7442 36.6671 32.6654 36.4688 32.5518 36.2919C32.4381 36.115 32.292 35.963 32.1216 35.8446C31.9512 35.7262 31.7599 35.6436 31.5587 35.6017C31.3574 35.5597 31.1502 35.5592 30.9488 35.6001C30.7474 35.6411 30.5557 35.7227 30.3848 35.8402C27.7344 37.6672 23.8691 38.803 20.3125 38.803C16.9131 38.803 13.5901 37.7599 10.7636 35.8057C7.93717 33.8515 5.7342 31.0739 4.43332 27.8242C3.13244 24.5745 2.79207 20.9986 3.45525 17.5487C4.11844 14.0988 5.75539 10.9298 8.1591 8.4426C10.5628 5.95537 13.6253 4.26154 16.9594 3.57531C20.2934 2.88908 23.7493 3.24128 26.8899 4.58736C30.0305 5.93345 32.7148 8.21296 34.6034 11.1376C36.492 14.0623 37.5 17.5008 37.5 21.0183C37.5 26.3638 35.375 27.4855 33.5938 27.4855C31.8125 27.4855 29.6875 26.3638 29.6875 21.0183V12.9343C29.6875 12.5055 29.5229 12.0943 29.2299 11.7911C28.9368 11.4879 28.5394 11.3175 28.125 11.3175C27.7106 11.3175 27.3132 11.4879 27.0201 11.7911C26.7271 12.0943 26.5625 12.5055 26.5625 12.9343V13.7953C25.1603 12.4944 23.412 11.6607 21.5453 11.4027C19.6787 11.1447 17.7802 11.4744 16.0972 12.3489C14.4142 13.2233 13.0248 14.602 12.1099 16.3053C11.1949 18.0085 10.797 19.9574 10.9678 21.8981C11.1387 23.8387 11.8704 25.6811 13.0676 27.1853C14.2649 28.6895 15.8722 29.7857 17.6802 30.3311C19.4882 30.8765 21.413 30.8458 23.2039 30.2431C24.9948 29.6404 26.5687 28.4935 27.7207 26.9519C28.8926 29.3771 30.9141 30.719 33.5938 30.719C37.9961 30.719 40.625 27.0934 40.625 21.0183C40.6193 15.4457 38.4774 10.103 34.6693 6.16261C30.8612 2.22219 25.698 0.00588475 20.3125 0ZM20.3125 27.4855C19.0764 27.4855 17.868 27.1062 16.8402 26.3955C15.8124 25.6849 15.0113 24.6749 14.5383 23.4932C14.0652 22.3114 13.9414 21.0111 14.1826 19.7566C14.4237 18.5021 15.019 17.3498 15.8931 16.4453C16.7672 15.5409 17.8808 14.9249 19.0932 14.6754C20.3056 14.4259 21.5622 14.5539 22.7043 15.0434C23.8463 15.5329 24.8224 16.3618 25.5092 17.4253C26.1959 18.4888 26.5625 19.7392 26.5625 21.0183C26.5625 22.7335 25.904 24.3784 24.7319 25.5913C23.5598 26.8041 21.9701 27.4855 20.3125 27.4855Z" fill="white"/>
</svg>
